# xmcd
#
# Track frame offsets: 
#        150
#        17491
#        35121
#        64017
#        79642
#        93998
#        116397
#        138397
#        155202
#        174703
#        190356
#        208808
#        223964
#        242791
#        256867
#
# Disc length: 3636 seconds
#
# Revision: 4
# Processed by: cddbd v1.5.2PL0 Copyright (c) Steve Scherf et al.
# Submitted via: ExactAudioCopy v0.99pb5
#
DISCID=da0e320f
DTITLE=Oscar Benton - Best of
DYEAR=1900
DGENRE=
TTITLE0=Bensonhurst blues
TTITLE1=Busted
TTITLE2=St Louis blues
TTITLE3=I believe in love
TTITLE4=Basin street blues
TTITLE5=Helpless
TTITLE6=If you go away
TTITLE7=It ain't nobody's business
TTITLE8=I feel so good
TTITLE9=Not the same dreams anymore
TTITLE10=How can I juste start again
TTITLE11=I can't leave you
TTITLE12=Prisoner of love
TTITLE13=My petite fleur
TTITLE14=The day I got rid of the blues
EXTD=
EXTT0=
EXTT1=
EXTT2=
EXTT3=
EXTT4=
EXTT5=
EXTT6=
EXTT7=
EXTT8=
EXTT9=
EXTT10=
EXTT11=
EXTT12=
EXTT13=
EXTT14=
PLAYORDER=
